<svg width="29" height="42" viewBox="0 0 29 42" fill="none" xmlns="http://www.w3.org/2000/svg">
<path d="M21.25 14.3333C17.5221 14.3333 14.5 17.3181 14.5 21C14.5 24.6819 17.5221 27.6667 21.25 27.6667C24.9779 27.6667 28 24.6819 28 21C28 17.3181 24.9779 14.3333 21.25 14.3333ZM21.25 14.3333H14.5M21.25 14.3333C23.0402 14.3333 24.7571 13.631 26.023 12.3807C27.2888 11.1305 28 9.43478 28 7.66667C28 5.89856 27.2888 4.20286 26.023 2.95262C24.7571 1.70238 23.0402 1 21.25 1H14.5M14.5 27.6667V34.3333C14.5 36.1014 13.7888 37.7971 12.523 39.0474C11.2571 40.2976 9.54021 41 7.75 41C5.95979 41 4.2429 40.2976 2.97703 39.0474C1.71116 37.7971 1 36.1014 1 34.3333C1 32.5652 1.71116 30.8695 2.97703 29.6193C4.2429 28.369 5.95979 27.6667 7.75 27.6667M14.5 27.6667H7.75M14.5 27.6667V14.3333M7.75 27.6667C5.95979 27.6667 4.2429 26.9643 2.97703 25.714C1.71116 24.4638 1 22.7681 1 21C1 19.2319 1.71116 17.5362 2.97703 16.286C4.2429 15.0357 5.95979 14.3333 7.75 14.3333M14.5 14.3333H7.75M14.5 14.3333V1M7.75 14.3333C5.95979 14.3333 4.2429 13.631 2.97703 12.3807C1.71116 11.1305 1 9.43478 1 7.66667C1 5.89856 1.71116 4.20286 2.97703 2.95262C4.2429 1.70238 5.95979 1 7.75 1H14.5" stroke="#DE6B48" stroke-width="2" stroke-linecap="round" stroke-linejoin="round"/>
</svg>
