<svg width="42" height="40" viewBox="0 0 42 40" fill="none" xmlns="http://www.w3.org/2000/svg">
<path d="M16.2242 25.68L30.1858 15.44C30.8709 14.9391 31.85 15.1322 32.1755 15.9139C33.8922 20.0252 33.124 24.967 29.7089 28.3617C26.2937 31.7539 21.5425 32.4974 17.1972 30.8035L12.4521 32.987C19.2579 37.6087 27.5231 36.4652 32.6865 31.3322C36.7832 27.2635 38.0511 21.7165 36.8646 16.713L36.8742 16.7226C35.154 9.37304 37.296 6.43652 41.6876 0.431304C41.7891 0.288696 41.895 0.144348 42 0L36.2232 5.73826V5.71913L16.2208 25.6826M13.342 28.167C8.45775 23.533 9.30038 16.3591 13.4663 12.22C16.5471 9.15739 21.5985 7.9087 26.0059 9.74435L30.7414 7.57304C29.8891 6.96087 28.7954 6.30348 27.5398 5.83913C21.8715 3.52087 15.0815 4.67391 10.4729 9.24956C6.041 13.653 4.64625 20.4243 7.03938 26.2026C8.82787 30.52 5.89575 33.5765 2.94262 36.6574C1.8935 37.7487 0.846125 38.8435 0 40L13.3359 28.167" fill="#DE6B48"/>
</svg>
