<svg width="40" height="40" viewBox="0 0 40 40" fill="none" xmlns="http://www.w3.org/2000/svg">
<path d="M0 0V40H40V0H0ZM2 2H38V38H2V2ZM30 3.77344L21 11.7734V4.125H19V11.8984L10 3.89844V13H6V27H10V36.2266L19 28.2266V35H21V28.3516L30 36.3516V27H34V13H30V3.77344ZM28 8.22656V13H22.6309L28 8.22656ZM12 8.35156L17.2285 13H12V8.35156ZM8 15H17.3691L10 21.5508V25H8V15ZM22.4902 15H32V25H30V21.6758L22.4902 15ZM19 16.2285V25.5527L12 31.7734V22.4492L19 16.2285ZM21 16.3516L28 22.5742V31.8984L21 25.6758V16.3516Z" fill="#DE6B48"/>
</svg>
