<svg width="40" height="40" viewBox="0 0 40 40" fill="none" xmlns="http://www.w3.org/2000/svg">
<path d="M0 0V40H40V0H0ZM2 2H38V38H2V2ZM14 8C11.243 8 9 10.243 9 13V27C9 29.757 11.243 32 14 32C16.757 32 19 29.757 19 27V26.0352L23.4668 30.5039C24.4418 31.4789 25.722 31.9648 27.002 31.9648C28.282 31.9648 29.5631 31.4789 30.5371 30.5039C32.4861 28.5549 32.4858 25.3813 30.5898 23.4883L25.8945 18H27C29.757 18 32 15.757 32 13C32 10.243 29.757 8 27 8H14ZM14 10C15.654 10 17 11.346 17 13V27C17 28.654 15.654 30 14 30C12.346 30 11 28.654 11 27V13C11 11.346 12.346 10 14 10ZM17.9746 10H27C28.654 10 30 11.346 30 13C30 14.654 28.654 16 27 16H19V13C19 11.87 18.6096 10.838 17.9746 10ZM19.002 18H23.2637L29.123 24.8457C30.293 26.0157 30.293 27.9198 29.123 29.0898C27.953 30.2598 26.0509 30.2598 24.8809 29.0898L19.1074 23.3145C19.0764 23.2835 19.036 23.2711 19.002 23.2441V18Z" fill="#DE6B48"/>
</svg>
