<svg width="40" height="40" viewBox="0 0 40 40" fill="none" xmlns="http://www.w3.org/2000/svg">
<path d="M39.2322 19.2009L38.367 19.1661H38.3652C28.907 18.7939 21.2061 11.093 20.8339 1.63478L20.7991 0.768696C20.7826 0.33913 20.4296 0 20 0C19.5704 0 19.2174 0.33913 19.2009 0.767826L19.1661 1.63391C18.793 11.0922 11.0922 18.793 1.63304 19.1661L0.767826 19.2009C0.33913 19.2174 0 19.5704 0 20C0 20.4296 0.33913 20.7826 0.768696 20.7991L1.63391 20.833C11.0922 21.207 18.793 28.9078 19.1661 38.3661L19.2009 39.2322C19.2174 39.6609 19.5704 40 20 40C20.4296 40 20.7826 39.6609 20.7991 39.2322L20.8339 38.3661C21.207 28.9078 28.9078 21.207 38.3661 20.833L39.2313 20.7991C39.6609 20.7826 40 20.4296 40 20C40 19.5704 39.6609 19.2174 39.2322 19.2009Z" fill="#DE6B48"/>
</svg>
